<svg xmlns="http://www.w3.org/2000/svg" xmlns:xlink="http://www.w3.org/1999/xlink" viewBox="0 0 53 52" fill="none" stroke="none" stroke-linecap="square" stroke-miterlimit="10" xmlns:v="https://vecta.io/nano"><clipPath id="A"><path d="M0 0h53v52H0V0z"/></clipPath><g clip-path="url(#A)"><g fill="#000" fill-rule="evenodd"><path fill-opacity="0" d="M0 0h53v52H0z"/><use xlink:href="#C"/></g><use xlink:href="#C" stroke="#000" stroke-linejoin="round"/></g><defs ><path id="C" d="M5.825 6.363v1.072h1.709c1.994 0 3.418.386 4.273 1.159.617.579.926 2.115.926 4.606v25.52c0 1.912-.138 3.177-.415 3.795-.269.618-.783 1.081-1.543 1.39-1.021.444-2.101.666-3.24.666H5.825v1.072h37.211l4.166-9.849h-1.424c-1.543 2.414-3.051 4.22-4.522 5.417-1.139.908-2.326 1.516-3.561 1.825s-3.217.463-5.947.463h-8.19c-1.329 0-2.232-.109-2.706-.328-.475-.225-.807-.525-.997-.898-.19-.38-.285-1.439-.285-3.177V26.148h10.611c2.018 0 3.513.193 4.487.579s1.674.917 2.101 1.593c.332.541.665 1.767.997 3.679h1.318V18.327h-1.318c-.142 2.24-.831 3.804-2.065 4.693-.926.676-2.766 1.014-5.519 1.014H19.57V8.507h13.247c2.398 0 4.071.145 5.021.435 1.187.406 2.081.995 2.683 1.767.609.772 1.163 2.192 1.662 4.258h1.389l-.534-8.603z"/></defs></svg>